HIERARCHY
ROOT Hips
{
	OFFSET 53.835800 1.922591 54.359100
	CHANNELS 6 Xposition Yposition Zposition Xrotation Yrotation Zrotation
	JOINT spine
	{
		OFFSET 0.000000 -0.458068 7.965679
		CHANNELS 3 Xrotation Yrotation Zrotation
		JOINT spine1
		{
			OFFSET 0.000000 -0.000002 10.243099
			CHANNELS 3 Xrotation Yrotation Zrotation
			JOINT spine2
			{
				OFFSET 0.000000 -0.000002 9.814751
				CHANNELS 3 Xrotation Yrotation Zrotation
				JOINT Neck
				{
					OFFSET 0.000000 -1.201384 25.198601
					CHANNELS 3 Xrotation Yrotation Zrotation
					JOINT Head
					{
						OFFSET 0.000000 -0.000001 7.613152
						CHANNELS 3 Xrotation Yrotation Zrotation
						End Site
						{
							OFFSET 0.000000 6.077327 18.428101
						}
					}
				}
				JOINT RightShoulder
				{
					OFFSET -4.132698 0.575449 10.599197
					CHANNELS 3 Xrotation Yrotation Zrotation
					JOINT RightArm
					{
						OFFSET 0.000000 -0.000002 13.901802
						CHANNELS 3 Xrotation Yrotation Zrotation
						JOINT RightArmRoll
						{
							OFFSET 0.000000 -0.000001 7.017883
							CHANNELS 3 Xrotation Yrotation Zrotation
							JOINT RightForeArm
							{
								OFFSET 0.000000 -0.000003 20.440605
								CHANNELS 3 Xrotation Yrotation Zrotation
								JOINT RightForeArmRoll
								{
									OFFSET 0.000000 -0.000001 7.875153
									CHANNELS 3 Xrotation Yrotation Zrotation
									JOINT RightHand
									{
										OFFSET 0.000000 -0.000003 15.803696
										CHANNELS 3 Xrotation Yrotation Zrotation
										End Site
										{
											OFFSET 0.000000 0.000000 0.100006
										}
									}
								}
							}
						}
					}
				}
				JOINT LeftShoulder
				{
					OFFSET 4.132698 0.575449 10.599197
					CHANNELS 3 Xrotation Yrotation Zrotation
					JOINT LeftArm
					{
						OFFSET 0.000000 -0.000002 13.901802
						CHANNELS 3 Xrotation Yrotation Zrotation
						JOINT LeftArmRoll
						{
							OFFSET 0.000000 -0.000001 7.017883
							CHANNELS 3 Xrotation Yrotation Zrotation
							JOINT LeftForeArm
							{
								OFFSET 0.000000 -0.000003 20.440605
								CHANNELS 3 Xrotation Yrotation Zrotation
								JOINT LeftForeArmRoll
								{
									OFFSET 0.000000 -0.000001 7.875168
									CHANNELS 3 Xrotation Yrotation Zrotation
									JOINT LeftHand
									{
										OFFSET 0.000000 -0.000003 15.803696
										CHANNELS 3 Xrotation Yrotation Zrotation
										End Site
										{
											OFFSET 0.000000 0.000000 0.100006
										}
									}
								}
							}
						}
					}
				}
			}
		}
	}
	JOINT RightUpLeg
	{
		OFFSET -7.060478 1.086100 -1.294701
		CHANNELS 3 Xrotation Yrotation Zrotation
		JOINT RightUpLegRoll
		{
			OFFSET 0.000000 -0.000003 18.530800
			CHANNELS 3 Xrotation Yrotation Zrotation
			JOINT RightLeg
			{
				OFFSET 0.000000 0.000004 -22.947601
				CHANNELS 3 Xrotation Yrotation Zrotation
				JOINT RightLegRoll
				{
					OFFSET 0.000000 -0.000004 23.022598
					CHANNELS 3 Xrotation Yrotation Zrotation
					JOINT RightFoot
					{
						OFFSET 0.000000 -0.000003 19.162498
						CHANNELS 3 Xrotation Yrotation Zrotation
						JOINT RightToeBase
						{
							OFFSET 0.000000 -0.000003 16.018799
							CHANNELS 3 Xrotation Yrotation Zrotation
							End Site
							{
								OFFSET 0.006790 0.894205 7.757820
							}
						}
					}
				}
			}
		}
	}
	JOINT LeftUpLeg
	{
		OFFSET 7.060478 1.086100 -1.294701
		CHANNELS 3 Xrotation Yrotation Zrotation
		JOINT LeftUpLegRoll
		{
			OFFSET 0.000000 -0.000003 18.530899
			CHANNELS 3 Xrotation Yrotation Zrotation
			JOINT LeftLeg
			{
				OFFSET 0.000000 -0.000004 22.947502
				CHANNELS 3 Xrotation Yrotation Zrotation
				JOINT LeftLegRoll
				{
					OFFSET 0.000000 -0.000004 23.235504
					CHANNELS 3 Xrotation Yrotation Zrotation
					JOINT LeftFoot
					{
						OFFSET 0.000000 -0.000003 18.949600
						CHANNELS 3 Xrotation Yrotation Zrotation
						JOINT LeftToeBase
						{
							OFFSET 0.000000 -0.000003 16.018799
							CHANNELS 3 Xrotation Yrotation Zrotation
							End Site
							{
								OFFSET -0.030430 0.894205 7.757812
							}
						}
					}
				}
			}
		}
	}
}
MOTION
Frames: 9
Frame Time: 0.041667
53.518402 -34.725819 97.104599 -3.233377 -0.447898 1.680297 -0.949366 0.120058 -0.170958 2.104448 0.237002 -0.325814 3.749531 0.232888 -0.328770 8.391347 3.933272 -0.424821 9.895139 -5.622571 0.305075 -11.140476 -68.797463 -13.638785 -54.791740 -116.070882 -50.995278 0.000000 -0.000000 0.000000 17.294630 -10.079394 0.587367 -0.000007 -0.000005 -2.999990 -5.000220 -7.998784 0.000157 -12.125228 62.219765 14.463808 -48.524089 118.827793 52.497568 0.000000 -0.000009 0.000003 14.918265 13.580421 -1.121097 -0.000011 -0.000006 3.000010 -5.000182 7.998745 -0.000180 0.946610 -177.226388 3.060880 -179.999991 0.000005 -1.171004 174.013276 -2.028878 -0.543723 -0.000000 -0.000003 0.052225 68.448269 6.937520 2.044532 25.456931 -7.353739 0.000007 -1.476482 175.895348 -0.891337 -0.000005 -0.000005 -1.121460 -9.837420 2.136981 0.448058 -0.000002 0.000001 -0.191423 70.646402 -6.891258 -2.006850 25.456969 7.350847 -0.000009 
53.526405 -34.725616 97.108589 -3.239740 -0.449506 1.679016 -0.945964 0.119710 -0.170397 2.111248 0.236900 -0.325743 3.756332 0.232782 -0.328689 8.364886 3.922575 -0.426854 9.915544 -5.609917 0.301575 -11.163099 -68.802039 -13.664330 -54.820936 -116.084201 -51.032059 -0.000000 0.000001 0.000000 17.283003 -10.084326 0.587498 -0.000007 -0.000005 -2.999990 -5.000225 -7.998783 0.000157 -12.095855 62.222559 14.429820 -48.545675 118.872243 52.541367 -0.000001 -0.000008 0.000003 14.851644 13.599116 -1.118693 -0.000009 -0.000005 3.000010 -5.000179 7.998744 -0.000179 0.943352 -177.227385 3.057635 -179.999991 0.000005 -1.171004 174.000736 -2.023859 -0.543644 0.000000 -0.000003 0.052224 68.450482 6.937532 2.044596 25.456935 -7.353739 0.000006 -1.476338 175.898367 -0.888696 -0.000005 -0.000004 -1.121460 -9.844231 2.134897 0.447970 -0.000002 0.000001 -0.191420 70.645111 -6.891248 -2.006928 25.456969 7.350847 -0.000010 
53.523106 -34.711811 97.106285 -3.246422 -0.451398 1.677996 -0.942496 0.119396 -0.169766 2.118188 0.236900 -0.325569 3.763271 0.232774 -0.328507 8.337927 3.911180 -0.429094 9.936275 -5.596322 0.297746 -11.186888 -68.807052 -13.691185 -54.849677 -116.097288 -51.069113 0.000001 -0.000000 -0.000000 17.273036 -10.089840 0.587852 -0.000005 -0.000005 -2.999990 -5.000224 -7.998784 0.000157 -12.065618 62.225434 14.394827 -48.567826 118.916995 52.585667 -0.000003 -0.000009 0.000003 14.784781 13.617621 -1.116158 -0.000012 -0.000006 3.000011 -5.000182 7.998744 -0.000180 0.940484 -177.228369 3.054801 -179.999991 0.000005 -1.171003 173.988018 -2.018840 -0.543570 0.000000 -0.000003 0.052224 68.453010 6.937567 2.044544 25.456933 -7.353739 0.000006 -1.475610 175.902356 -0.885737 -0.000005 -0.000005 -1.121460 -9.850642 2.132659 0.447840 -0.000002 0.000001 -0.191415 70.643629 -6.891269 -2.006824 25.456967 7.350847 -0.000009 
53.505302 -34.707016 97.102798 -3.253320 -0.453488 1.677143 -0.938979 0.119105 -0.169086 2.125219 0.236971 -0.325323 3.770301 0.232835 -0.328253 8.310602 3.899269 -0.431479 9.957232 -5.582074 0.293685 -11.211510 -68.812407 -13.718986 -54.881584 -116.109159 -51.110220 0.000000 -0.000000 0.000000 17.264218 -10.095868 0.588392 -0.000006 -0.000005 -2.999990 -5.000218 -7.998783 0.000158 -12.034781 62.228453 14.359155 -48.589016 118.962593 52.628783 -0.000001 -0.000009 0.000003 14.717815 13.636024 -1.113552 -0.000011 -0.000005 3.000011 -5.000178 7.998744 -0.000179 0.937888 -177.228369 3.052266 -179.999991 0.000005 -1.171004 173.975109 -2.013819 -0.543501 0.000000 -0.000003 0.052224 68.455749 6.937537 2.044566 25.456938 -7.353738 0.000007 -1.474479 175.905348 -0.882513 -0.000005 -0.000004 -1.121460 -9.856760 2.130293 0.447677 -0.000002 0.000001 -0.191410 70.642037 -6.891256 -2.006920 25.456964 7.350847 -0.000010 
53.515305 -34.719917 97.103592 -3.260353 -0.455693 1.676402 -0.935437 0.118827 -0.168378 2.132307 0.237083 -0.325035 3.777381 0.232935 -0.327958 8.283078 3.887081 -0.433955 9.978325 -5.567459 0.289487 -11.236522 -68.817837 -13.747228 -54.911524 -116.121439 -51.149480 0.000002 0.000000 -0.000000 17.256024 -10.102247 0.589046 -0.000009 -0.000005 -2.999991 -5.000224 -7.998783 0.000157 -12.003579 62.231500 14.323051 -48.610617 119.008410 52.672261 -0.000001 -0.000009 0.000003 14.650624 13.654335 -1.110832 -0.000010 -0.000005 3.000010 -5.000179 7.998742 -0.000180 0.935446 -177.228369 3.049887 -179.999991 0.000005 -1.171004 173.962145 -2.008800 -0.543431 0.000000 -0.000003 0.052225 68.458597 6.937557 2.044492 25.456936 -7.353739 0.000006 -1.473117 175.910347 -0.879203 -0.000005 -0.000005 -1.121460 -9.862718 2.127871 0.447497 -0.000002 0.000001 -0.191404 70.640432 -6.891244 -2.006916 25.456965 7.350846 -0.000009 
53.523903 -34.716110 97.105103 -3.267426 -0.457926 1.675687 -0.931889 0.118553 -0.167664 2.139398 0.237205 -0.324738 3.784481 0.233045 -0.327652 8.255512 3.874823 -0.436462 9.999458 -5.552758 0.285247 -11.261708 -68.823356 -13.775676 -54.943083 -116.133174 -51.190625 -0.000000 -0.000000 -0.000000 17.247932 -10.108619 0.589697 -0.000008 -0.000006 -2.999991 -5.000223 -7.998783 0.000157 -11.972285 62.234539 14.286854 -48.633382 119.053503 52.717097 -0.000001 -0.000008 0.000003 14.583535 13.672731 -1.108113 -0.000013 -0.000005 3.000011 -5.000177 7.998744 -0.000180 0.933037 -177.228369 3.047551 -179.999991 0.000005 -1.170006 173.949127 -2.003779 -0.543360 0.000000 -0.000003 0.052225 68.461438 6.937537 2.044608 25.456931 -7.353738 0.000007 -1.471699 175.914336 -0.875832 -0.000005 -0.000004 -1.121460 -9.868639 2.125427 0.447311 -0.000002 0.000001 -0.191397 70.638738 -6.891264 -2.006826 25.456967 7.350846 -0.000009 
53.530804 -34.706013 97.104599 -3.274416 -0.460101 1.674917 -0.928350 0.118273 -0.166963 2.146478 0.237306 -0.324461 3.791552 0.233135 -0.327368 8.228039 3.862708 -0.438942 10.020518 -5.538235 0.281058 -11.286666 -68.828786 -13.803852 -54.974786 -116.144976 -51.231757 0.000000 0.000000 -0.000000 17.239628 -10.114812 0.590300 -0.000006 -0.000005 -2.999991 -5.000220 -7.998784 0.000157 -11.941151 62.237558 14.250841 -48.654757 119.099238 52.760370 -0.000001 -0.000008 0.000003 14.516432 13.691109 -1.105344 -0.000013 -0.000005 3.000011 -5.000178 7.998744 -0.000180 0.930559 -177.229366 3.045115 -179.999991 0.000005 -1.170006 173.936163 -1.998759 -0.543286 0.000000 -0.000003 0.052225 68.464293 6.937555 2.044532 25.456931 -7.353736 0.000006 -1.470395 175.918339 -0.872530 -0.000004 -0.000004 -1.121460 -9.874645 2.123015 0.447134 -0.000002 0.000002 -0.191392 70.637140 -6.891252 -2.006922 25.456962 7.350847 -0.000010 
53.524204 -34.710312 97.108086 -3.281257 -0.462134 1.674016 -0.924849 0.117975 -0.166296 2.153478 0.237357 -0.324235 3.798551 0.233176 -0.327135 8.200822 3.850966 -0.441335 10.041409 -5.524198 0.277020 -11.311040 -68.833943 -13.831376 -55.004910 -116.157448 -51.270764 0.000001 0.000000 -0.000000 17.230498 -10.120763 0.590799 -0.000011 -0.000005 -2.999990 -5.000217 -7.998784 0.000157 -11.910422 62.240440 14.215299 -48.675668 119.144768 52.803226 -0.000002 -0.000008 0.000003 14.449438 13.709670 -1.102592 -0.000009 -0.000005 3.000011 -5.000177 7.998743 -0.000179 0.927883 -177.229366 3.042496 -179.999991 0.000005 -1.170006 173.923309 -1.993740 -0.543205 0.000000 -0.000003 0.052225 68.467018 6.937527 2.044556 25.456933 -7.353739 0.000007 -1.469377 175.922327 -0.869400 -0.000005 -0.000005 -1.121460 -9.880845 2.120690 0.446979 -0.000002 0.000001 -0.191386 70.635542 -6.891273 -2.006825 25.456967 7.350845 -0.000009 
53.503506 -34.706116 97.102997 -3.287848 -0.463939 1.672918 -0.921401 0.117651 -0.165686 2.160378 0.237327 -0.324093 3.805452 0.233139 -0.326982 8.174023 3.839790 -0.443582 10.062088 -5.510905 0.273231 -11.334568 -68.838847 -13.857942 -55.033614 -116.170658 -51.307589 -0.000000 -0.000001 0.000000 17.220013 -10.126115 0.591073 -0.000007 -0.000005 -2.999990 -5.000221 -7.998783 0.000158 -11.880396 62.243241 14.180558 -48.695957 119.190011 52.845515 -0.000001 -0.000009 0.000004 14.382539 13.728213 -1.099783 -0.000006 -0.000005 3.000011 -5.000180 7.998743 -0.000179 0.924899 -177.230350 3.039534 -179.999991 0.000005 -1.170006 173.910645 -1.987730 -0.543010 0.000000 -0.000003 0.052225 68.469443 6.937553 2.044508 25.456935 -7.353739 0.000006 -1.468820 175.925333 -0.866518 -0.000005 -0.000004 -1.121459 -9.887376 2.118489 0.446856 -0.000002 0.000001 -0.191383 70.634162 -6.891263 -2.006811 25.456967 7.350846 -0.000009 
